<?xml version="1.0" encoding="UTF-8" standalone="no"?>
<!-- Created with Inkscape (http://www.inkscape.org/) -->

<svg
   xmlns:dc="http://purl.org/dc/elements/1.1/"
   xmlns:cc="http://creativecommons.org/ns#"
   xmlns:rdf="http://www.w3.org/1999/02/22-rdf-syntax-ns#"
   xmlns:svg="http://www.w3.org/2000/svg"
   xmlns="http://www.w3.org/2000/svg"
   xmlns:xlink="http://www.w3.org/1999/xlink"
   xmlns:sodipodi="http://sodipodi.sourceforge.net/DTD/sodipodi-0.dtd"
   xmlns:inkscape="http://www.inkscape.org/namespaces/inkscape"
   width="841.88977pt"
   height="595.27557pt"
   id="svg8567"
   sodipodi:version="0.32"
   inkscape:version="0.48.5 r10040"
   version="1.0"
   sodipodi:docname="linuxday_fullcolor.svg"
   inkscape:output_extension="org.inkscape.output.svg.inkscape"
   sodipodi:modified="true"
   inkscape:export-filename="/tmp/linuxday.png"
   inkscape:export-xdpi="90"
   inkscape:export-ydpi="90">
  <defs
     id="defs8569">
    <linearGradient
       id="linearGradient21792">
      <stop
         style="stop-color:#ffb904;stop-opacity:1;"
         offset="0"
         id="stop21794" />
      <stop
         style="stop-color:#f89900;stop-opacity:1;"
         offset="1"
         id="stop21796" />
    </linearGradient>
    <linearGradient
       id="linearGradient18290">
      <stop
         style="stop-color:#ffda01;stop-opacity:1;"
         offset="0"
         id="stop18292" />
      <stop
         style="stop-color:#ff9e01;stop-opacity:1;"
         offset="1"
         id="stop18294" />
    </linearGradient>
    <linearGradient
       id="linearGradient15658">
      <stop
         style="stop-color:#f8a900;stop-opacity:1;"
         offset="0"
         id="stop15660" />
      <stop
         id="stop16542"
         offset="0.85714287"
         style="stop-color:#ffce02;stop-opacity:0.49803922;" />
      <stop
         style="stop-color:#ffda01;stop-opacity:0;"
         offset="1"
         id="stop15662" />
    </linearGradient>
    <linearGradient
       id="linearGradient14773">
      <stop
         style="stop-color:#ffffff;stop-opacity:1;"
         offset="0"
         id="stop14775" />
      <stop
         style="stop-color:#ffffff;stop-opacity:0;"
         offset="1"
         id="stop14777" />
    </linearGradient>
    <linearGradient
       inkscape:collect="always"
       xlink:href="#linearGradient14773"
       id="linearGradient14779"
       x1="189.5"
       y1="159.09448"
       x2="207"
       y2="262.09448"
       gradientUnits="userSpaceOnUse" />
    <radialGradient
       inkscape:collect="always"
       xlink:href="#linearGradient15658"
       id="radialGradient15664"
       cx="188"
       cy="368.09448"
       fx="188"
       fy="368.09448"
       r="87"
       gradientTransform="matrix(1,-1.115724e-6,5.514499e-7,0.494253,-1.628294e-4,186.163)"
       gradientUnits="userSpaceOnUse" />
    <linearGradient
       inkscape:collect="always"
       xlink:href="#linearGradient18290"
       id="linearGradient18296"
       x1="341.33981"
       y1="-108.89819"
       x2="466.39041"
       y2="317.3226"
       gradientUnits="userSpaceOnUse"
       gradientTransform="matrix(0.709222,0,0,0.743746,231.5701,170.0871)" />
    <radialGradient
       inkscape:collect="always"
       xlink:href="#linearGradient21792"
       id="radialGradient21802"
       gradientUnits="userSpaceOnUse"
       gradientTransform="matrix(2.442072,0.761195,-0.505901,1.623035,221.713,-340.5581)"
       cx="169.51411"
       cy="252.37883"
       fx="169.51411"
       fy="252.37883"
       r="94.3533" />
  </defs>
  <sodipodi:namedview
     id="base"
     pagecolor="#ffffff"
     bordercolor="#666666"
     borderopacity="1.0"
     inkscape:pageopacity="0.0"
     inkscape:pageshadow="2"
     inkscape:zoom="0.5"
     inkscape:cx="404.56257"
     inkscape:cy="365.20261"
     inkscape:document-units="px"
     inkscape:current-layer="layer1"
     inkscape:window-width="1024"
     inkscape:window-height="768"
     inkscape:window-x="0"
     inkscape:window-y="27"
     showgrid="false"
     inkscape:window-maximized="0" />
  <metadata
     id="metadata8572">
    <rdf:RDF>
      <cc:Work
         rdf:about="">
        <dc:format>image/svg+xml</dc:format>
        <dc:type
           rdf:resource="http://purl.org/dc/dcmitype/StillImage" />
        <dc:title></dc:title>
      </cc:Work>
    </rdf:RDF>
  </metadata>
  <g
     inkscape:label="Layer 1"
     inkscape:groupmode="layer"
     id="layer1">
    <path
       style="fill:#c3c3c3;fill-opacity:1;fill-rule:evenodd;stroke:none;stroke-width:1px;stroke-linecap:butt;stroke-linejoin:miter;stroke-opacity:1"
       d="M 461.06952,401.70411 L 445.98931,406.47951 L 455.03743,431.6132 C 455.03743,431.6132 447.74866,440.91266 442.47059,439.15331 C 437.19251,437.39395 430.65775,423.06774 427.13904,414.01962 C 423.62032,404.97149 420.60428,400.44742 416.83423,399.94475 C 413.06417,399.44208 403.76471,401.70411 398.23529,403.96614 C 392.70588,406.22817 380.89305,413.26561 380.89305,413.26561 L 399.49198,429.85384 L 389.4385,464.53833 C 389.4385,464.53833 413.06417,446.69341 418.09091,445.68807 C 423.11765,444.68272 425.88235,444.18004 430.90909,450.7148 C 435.93583,457.24956 440.45989,475.84849 451.77005,477.10518 C 463.08021,478.36186 485.95187,454.73619 485.95187,454.73619 L 483.94118,441.164 C 483.94118,441.164 515.35829,427.34047 539.48663,427.34047 C 563.61497,427.34047 599.55615,429.35117 606.09091,427.59181 C 612.62567,425.83245 635.74866,417.03566 635.74866,417.03566 L 634.49198,431.86454 C 634.49198,431.86454 679.48128,407.48486 688.52941,409.24422 C 697.57754,411.00357 726.98396,431.11053 726.98396,431.11053 L 718.94118,401.70411 L 731.50802,380.84315 C 731.50802,380.84315 700.84492,371.54368 693.30481,372.80036 C 685.76471,374.05705 662.39037,383.60785 662.39037,383.60785 C 662.39037,383.60785 661.13369,377.57577 663.14439,372.54903 C 665.15508,367.52229 665.90909,360.23352 665.90909,360.23352 L 683.75401,359.47951 L 676.96791,332.8378 L 702.60428,328.56507 L 688.52941,303.93405 L 715.42246,295.13726 L 693.55615,271.76293 L 721.45455,258.69341 L 695.06417,241.09983 L 720.70053,223.00357 L 688.52941,210.9394 L 712.90909,186.81106 L 678.97861,184.54903 L 699.58824,153.63459 L 663.14439,160.16935 L 679.98396,123.22282 L 642.7861,140.31373 L 655.1016,98.08913 L 619.6631,125.73619 L 625.94652,77.98218 L 595.03209,112.91801 L 593.02139,64.66133 L 568.39037,106.13192 L 559.34225,58.377905 L 543.25668,103.61855 L 523.90374,58.880579 L 514.60428,108.14261 L 490.47594,66.67202 L 488.46524,117.44208 L 458.30481,80.99823 L 467.60428,127.49555 L 429.90374,101.85919 L 443.72727,142.32443 L 405.27273,127.49555 L 425.63102,164.44208 L 386.42246,159.164 L 407.28342,188.06774 L 373.60428,193.34582 L 397.48128,216.46881 L 367.57219,229.287 L 392.45454,246.12657 L 368.07487,265.47951 L 393.71123,278.04635 L 375.36364,301.16935 L 401.25134,308.45812 L 388.68449,334.59716 L 415.82888,337.6132 L 409.04278,364.50625 L 433.17112,364.75758 L 433.6738,389.63994 L 457.29947,385.36721 L 461.06952,401.70411 z "
       id="path9252" />
    <path
       style="font-size:90px;font-style:normal;font-variant:normal;font-weight:normal;font-stretch:normal;text-align:start;line-height:89.99999762%;writing-mode:lr-tb;text-anchor:start;fill:black;fill-opacity:1;stroke:none;stroke-width:1px;stroke-linecap:butt;stroke-linejoin:miter;stroke-opacity:1;font-family:AlArabiya"
       d="M 394.96582,514.09448 L 394.96582,509.43628 L 403.31543,509.43628 L 403.31543,453.18628 L 394.96582,453.18628 L 394.96582,448.48413 L 420.58594,448.48413 L 420.58594,453.18628 L 412.23633,453.18628 L 412.23633,508.68921 L 442.20703,508.68921 L 442.20703,497.70288 L 447.6123,497.70288 L 447.6123,514.09448 L 394.96582,514.09448 M 472.00195,509.43628 L 480.35156,509.43628 L 480.35156,514.09448 L 454.73145,514.09448 L 454.73145,509.43628 L 463.08105,509.43628 L 463.08105,453.18628 L 454.73145,453.18628 L 454.73145,448.48413 L 480.35156,448.48413 L 480.35156,453.18628 L 472.00195,453.18628 L 472.00195,509.43628 M 489.66797,514.09448 L 489.66797,509.43628 L 498.50098,509.43628 L 498.50098,453.18628 L 489.66797,453.18628 L 489.66797,448.48413 L 506.49902,448.48413 L 545.83008,500.25171 L 545.83008,453.18628 L 537.04102,453.18628 L 537.04102,448.48413 L 560.06836,448.48413 L 560.06836,453.18628 L 551.23535,453.18628 L 551.23535,515.3689 L 545.91797,515.3689 L 503.90625,460.08569 L 503.90625,509.43628 L 512.73926,509.43628 L 512.73926,514.09448 L 489.66797,514.09448 M 576.63574,453.18628 L 568.24219,453.18628 L 568.24219,448.48413 L 593.90625,448.48413 L 593.90625,453.18628 L 585.5127,453.18628 L 585.5127,487.11206 C 585.51267,495.49099 586.87498,501.33571 589.59961,504.64624 C 592.35349,507.95679 597.08493,509.61207 603.79395,509.61206 C 610.50288,509.61207 615.21968,507.95679 617.94434,504.64624 C 620.69819,501.33571 622.07514,495.49099 622.0752,487.11206 L 622.0752,453.18628 L 613.68164,453.18628 L 613.68164,448.48413 L 635.83008,448.48413 L 635.83008,453.18628 L 627.48047,453.18628 L 627.48047,487.99097 C 627.48041,497.98122 625.56146,505.04176 621.72363,509.17261 C 617.88569,513.30347 611.36714,515.3689 602.16797,515.3689 C 592.96872,515.3689 586.40623,513.28882 582.48047,509.12866 C 578.58397,504.96851 576.63573,497.92262 576.63574,487.99097 L 576.63574,453.18628 M 669.75586,486.01343 L 653.71582,509.43628 L 662.19727,509.43628 L 662.19727,514.09448 L 640.48828,514.09448 L 640.48828,509.43628 L 648.04688,509.43628 L 666.94336,481.88257 L 647.7832,453.18628 L 640.75195,453.18628 L 640.75195,448.48413 L 666.76758,448.48413 L 666.76758,453.18628 L 659.0332,453.18628 L 673.0957,474.32397 L 687.55371,453.18628 L 679.11621,453.18628 L 679.11621,448.48413 L 700.60547,448.48413 L 700.60547,453.18628 L 693.22266,453.18628 L 675.86426,478.45483 L 696.5625,509.43628 L 703.59375,509.43628 L 703.59375,514.09448 L 677.57812,514.09448 L 677.57812,509.43628 L 685.40039,509.43628 L 669.75586,486.01343 M 412.23633,590.43628 L 420.41016,590.43628 C 428.93551,590.43628 435.4687,588.00464 440.00977,583.14136 C 444.58002,578.27809 446.86518,571.30544 446.86523,562.22339 C 446.86518,553.1414 444.59467,546.19804 440.05371,541.39331 C 435.51265,536.58868 428.9648,534.18634 420.41016,534.18628 L 412.23633,534.18628 L 412.23633,590.43628 M 394.96582,595.09448 L 394.96582,590.43628 L 403.31543,590.43628 L 403.31543,534.18628 L 394.96582,534.18628 L 394.96582,529.48413 L 421.06934,529.48413 C 432.37789,529.48419 441.18159,532.36993 447.48047,538.14136 C 453.80853,543.91289 456.97259,551.94023 456.97266,562.22339 C 456.97259,572.53591 453.80853,580.59254 447.48047,586.39331 C 441.15229,592.19409 432.34859,595.09448 421.06934,595.09448 L 394.96582,595.09448 M 537.56836,571.32007 L 561.65039,571.32007 L 549.60938,540.11889 L 537.56836,571.32007 M 519.02344,595.09448 L 519.02344,590.43628 L 524.78027,590.43628 L 548.15918,529.48413 L 555.54199,529.48413 L 578.96484,590.43628 L 585.4248,590.43628 L 585.4248,595.09448 L 561.5625,595.09448 L 561.5625,590.43628 L 568.85742,590.43628 L 563.36426,576.02221 L 535.7666,576.02221 L 530.27344,590.43628 L 537.48047,590.43628 L 537.48047,595.09448 L 519.02344,595.09448 M 658.90137,595.09448 L 658.90137,590.43628 L 667.29492,590.43628 L 667.29492,566.83764 L 647.03613,534.18628 L 640.88379,534.18628 L 640.88379,529.48413 L 665.27344,529.48413 L 665.27344,534.18628 L 657.62695,534.18628 L 674.01855,560.72925 L 690.41016,534.18628 L 683.02734,534.18628 L 683.02734,529.48413 L 702.09961,529.48413 L 702.09961,534.18628 L 695.90332,534.18628 L 676.17188,566.00268 L 676.17188,590.43628 L 684.56543,590.43628 L 684.56543,595.09448 L 658.90137,595.09448"
       id="text10127" />
    <path
       style="fill:#000000;fill-opacity:1;stroke:none;stroke-width:3.75;stroke-linejoin:round;stroke-miterlimit:4;stroke-opacity:1"
       d="M 657.48007,380.25455 L 633.54325,376.07531 L 628.86406,401.08201 L 606.16349,392.0785 L 596.92911,415.64596 L 576.33717,402.16419 L 562.90251,423.38671 L 545.21051,405.94477 L 528.09184,424.00678 L 513.97969,403.27494 L 493.83487,417.48235 L 483.8449,394.25733 L 461.44809,404.06413 L 455.96418,379.23846 L 432.17606,384.26781 L 431.40898,358.79551 L 407.14373,358.8541 L 414.2012,332.17264 L 387.31306,328.79969 L 399.47696,302.90277 L 373.44615,295.25954 L 392.43919,272.09104 L 366.07587,259.52254 L 390.89173,240.42742 L 365.48548,222.96208 L 395.99899,211.22349 L 371.69765,186.98316 L 405.61109,182.65684 L 384.47367,152.96841 L 423.50246,157.99904 L 403.32255,122.22501 L 441.94092,136.32012 L 427.51994,95.93441 L 465.30889,121.18022 L 456.13594,75.10695 L 486.53215,111.85666 L 488.07089,60.54299 L 512.76718,102.2848 L 522.09749,52.802246 L 541.32861,97.47659 L 556.90816,52.182184 L 566.91598,99.11879 L 591.16513,58.706619 L 592.4334,107.10877 L 623.55191,72.12483 L 617.23587,119.55854 L 652.82393,91.92116 L 640.25193,134.86329 L 677.85628,117.33486 L 661.051,154.2927 L 697.68694,147.38927 L 676.80133,178.42436 L 711.55385,180.92943 L 686.91734,205.12556 L 718.92413,216.66643 L 692.56914,235.24773 L 719.51452,253.22688 L 691.05318,265.99312 L 713.30235,289.20579 L 686.5715,298.1565 L 700.52633,323.22055 L 674.83664,326.92483 L 681.67744,353.96395 L 657.42428,354.76959 L 657.48007,380.25455 z "
       id="path22677"
       sodipodi:nodetypes="ccccccccccccccccccccccccccccccccccccccccccccccccccccccccccccccccc" />
    <path
       style="fill:url(#linearGradient18296);fill-opacity:1;stroke:none;stroke-width:3.75;stroke-linejoin:round;stroke-miterlimit:4;stroke-opacity:1"
       d="M 653.55719,375.43127 L 630.22889,371.36443 L 625.66865,395.6986 L 603.54517,386.93723 L 594.54556,409.87086 L 574.47709,396.75167 L 561.38396,417.40342 L 544.14172,400.43056 L 527.45823,418.00681 L 513.70484,397.83254 L 494.07213,411.65785 L 484.33611,389.05745 L 462.50866,398.60051 L 457.16416,374.44251 L 433.98079,379.33659 L 433.23321,354.54936 L 409.58482,354.60638 L 416.46288,328.64249 L 390.25828,325.36026 L 402.11296,300.15983 L 376.74389,292.72214 L 395.2541,270.17676 L 369.56098,257.94628 L 393.74598,239.3647 L 368.98559,222.36909 L 398.7234,210.94619 L 375.03985,187.3578 L 408.09115,183.14784 L 387.49107,154.25786 L 425.52769,159.1532 L 405.86078,124.34128 L 443.49741,138.05731 L 429.44304,98.757753 L 466.27133,123.32459 L 457.33158,78.490429 L 486.95506,114.25179 L 488.45467,64.318163 L 512.52314,104.93736 L 521.61627,56.7856 L 540.35851,100.25846 L 555.54199,56.182214 L 565.29539,101.85648 L 588.92809,62.53118 L 590.16412,109.63158 L 620.49157,75.588511 L 614.33606,121.74651 L 649.01944,94.85244 L 636.76703,136.63966 L 673.41541,119.58264 L 657.03735,155.54653 L 692.74195,148.82876 L 672.38728,179.02919 L 706.25634,181.46689 L 682.24613,205.01226 L 713.43925,216.24275 L 687.75425,234.32432 L 714.01463,251.81993 L 686.27683,264.24283 L 707.96038,286.83122 L 681.90908,295.54119 L 695.50915,319.93116 L 670.47255,323.53582 L 677.13945,349.84774 L 653.50282,350.63172 L 653.55719,375.43127 z "
       id="path10371"
       sodipodi:nodetypes="ccccccccccccccccccccccccccccccccccccccccccccccccccccccccccccccccc" />
    <path
       sodipodi:type="arc"
       style="fill:#fee900;fill-opacity:1;stroke:none;stroke-width:15.27747059;stroke-miterlimit:4;stroke-dasharray:none;stroke-opacity:1"
       id="path8575"
       sodipodi:cx="536.5"
       sodipodi:cy="384.09448"
       sodipodi:rx="207.5"
       sodipodi:ry="208"
       d="M 744 384.09448 A 207.5 208 0 1 1  329,384.09448 A 207.5 208 0 1 1  744 384.09448 z"
       transform="matrix(0.655842,0,0,0.655799,191.141,-1.15006)" />
    <path
       sodipodi:type="arc"
       style="fill:url(#linearGradient14779);fill-opacity:1;stroke:none;stroke-width:8;stroke-linejoin:round;stroke-miterlimit:4;stroke-dasharray:none;stroke-opacity:1"
       id="path13898"
       sodipodi:cx="189.5"
       sodipodi:cy="290.09448"
       sodipodi:rx="126.5"
       sodipodi:ry="131"
       d="M 316 290.09448 A 126.5 131 0 1 1  63,290.09448 A 126.5 131 0 1 1  316 290.09448 z"
       transform="translate(352,-40)" />
    <path
       sodipodi:type="arc"
       style="fill:url(#radialGradient15664);fill-opacity:1;stroke:none;stroke-width:8;stroke-linejoin:round;stroke-miterlimit:4;stroke-dasharray:none;stroke-opacity:1"
       id="path14783"
       sodipodi:cx="188"
       sodipodi:cy="368.09448"
       sodipodi:rx="87"
       sodipodi:ry="43"
       d="M 275 368.09448 A 87 43 0 1 1  101,368.09448 A 87 43 0 1 1  275 368.09448 z"
       transform="matrix(1.16092,0,0,1.197674,321.7471,-107.2629)" />
    <path
       style="fill:#000000;fill-opacity:1;fill-rule:evenodd;stroke:none;stroke-width:8.34331226;stroke-linecap:butt;stroke-linejoin:round;stroke-miterlimit:4;stroke-dasharray:none;stroke-opacity:1"
       d="M 559.86502,382.42763 C 600.10985,377.10584 589.42285,333.18302 600.41525,296.65806 C 611.74817,259.00156 659.93152,202.14999 641.34771,180.1256 C 619.6628,154.42599 603.23483,166.94633 590.74959,158.37978 C 578.26433,149.81325 571.03603,124.11364 542.77993,124.77261 C 514.52384,125.43158 511.23825,158.37978 498.753,158.37978 C 486.26775,158.37978 467.86844,141.24672 452.09758,171.55907 C 440.95005,192.98518 453.50649,261.37419 469.83977,298.73917 C 490.86756,346.84356 514.52384,383.74556 559.86502,382.42763 z "
       id="path9492"
       sodipodi:nodetypes="csssssssc" />
    <path
       style="fill:url(#radialGradient21802);fill-opacity:1;fill-rule:evenodd;stroke:none;stroke-width:8.34331226;stroke-linecap:butt;stroke-linejoin:round;stroke-miterlimit:4;stroke-dasharray:none;stroke-opacity:1"
       d="M 557.55467,377.41229 C 595.96748,372.27637 585.76697,329.88751 596.25897,294.63815 C 607.07599,258.29677 653.06594,203.43069 635.3281,182.17548 C 614.63033,157.37341 598.9502,169.45648 587.03331,161.18911 C 575.1164,152.92176 568.21715,128.11969 541.24733,128.75565 C 514.27751,129.3916 511.14149,161.18911 499.22459,161.18911 C 487.30769,161.18911 469.74595,144.65441 454.69302,173.90813 C 444.05295,194.58595 456.0378,260.58654 471.62755,296.64658 C 491.69812,343.07097 514.27751,378.68419 557.55467,377.41229 z "
       id="path21800"
       sodipodi:nodetypes="csssssssc" />
    <g
       id="g8352"
       transform="matrix(0.951351,0,0,1.232923,363.6811,-140.5609)">
      <g
         transform="translate(8,-10)"
         id="g6594">
        <path
           style="fill:#000000;fill-opacity:1;fill-rule:evenodd;stroke:none;stroke-width:1px;stroke-linecap:butt;stroke-linejoin:miter;stroke-opacity:1"
           d="M 119,488.09448 C 119,488.09448 96,507.09448 83,506.09448 C 70,505.09448 63,477.09448 49,480.09448 C 35,483.09448 16,497.09448 16,497.09448 L 28,468.09448 L 6,453.09448 C 6,453.09448 38,438.09448 48,444.09448 C 58,450.09448 62,479.09448 75,478.09448 C 88,477.09448 101,456.09448 107,456.09448 C 113,456.09448 119,487.09448 119,488.09448 z "
           id="path3090" />
        <path
           style="fill:#0ff000;fill-opacity:1;fill-rule:evenodd;stroke:none;stroke-width:1px;stroke-linecap:butt;stroke-linejoin:miter;stroke-opacity:1"
           d="M 113.5,484.48936 C 113.5,484.48936 92.738938,501.69279 81.004424,500.78736 C 69.269912,499.88191 62.951327,474.52946 50.314159,477.2458 C 37.676991,479.96214 20.526549,492.63836 20.526549,492.63836 L 31.358407,466.38046 L 11.5,452.7988 C 11.5,452.7988 40.384956,439.21713 49.411505,444.6498 C 58.438053,450.08246 62.048673,476.34035 73.783186,475.43491 C 85.517699,474.52946 97.252212,455.51513 102.66814,455.51513 C 108.08407,455.51513 113.5,483.58391 113.5,484.48936 z "
           id="path3965" />
      </g>
      <g
         transform="translate(-5,-1)"
         id="g6590">
        <path
           style="fill:#000000;fill-opacity:1;fill-rule:evenodd;stroke:none;stroke-width:1px;stroke-linecap:butt;stroke-linejoin:miter;stroke-opacity:1"
           d="M 288,432.09448 C 292,446.09448 287,460.09448 287,460.09448 C 287,460.09448 328,444.09448 342,442.09448 C 356,440.09448 385,460.09448 385,460.09448 L 376,436.09448 L 389,419.09448 C 389,419.09448 352,410.09448 340,414.09448 C 328,418.09448 289,430.09448 288,432.09448 z "
           id="path4840" />
        <path
           style="fill:#fb0000;fill-opacity:1;fill-rule:evenodd;stroke:none;stroke-width:1px;stroke-linecap:butt;stroke-linejoin:miter;stroke-opacity:1"
           d="M 291.92157,430.77489 C 295.60784,442.69089 291,454.60688 291,454.60688 C 291,454.60688 328.78431,440.9886 341.68627,439.28632 C 354.58824,437.58403 381.31373,454.60688 381.31373,454.60688 L 373.01961,434.17946 L 385,419.71004 C 385,419.71004 350.90196,412.04976 339.84314,415.45433 C 328.78431,418.8589 292.84314,429.07261 291.92157,430.77489 z "
           id="path5715" />
      </g>
      <path
         id="path6602"
         d="M 124,475.09448 L 97,479.09448 L 114,459.09448 L 124,475.09448 z "
         style="fill:#000000;fill-opacity:1;fill-rule:evenodd;stroke:#000000;stroke-width:1px;stroke-linecap:butt;stroke-linejoin:miter;stroke-opacity:1" />
      <path
         id="path7477"
         d="M 284,455.09448 L 315,434.09448 L 287,426.09448 L 284,455.09448 z "
         style="fill:#000000;fill-opacity:1;fill-rule:evenodd;stroke:#000000;stroke-width:1px;stroke-linecap:butt;stroke-linejoin:miter;stroke-opacity:1" />
      <g
         id="g6598">
        <path
           style="fill:#000000;fill-opacity:1;fill-rule:evenodd;stroke:none;stroke-width:1px;stroke-linecap:butt;stroke-linejoin:miter;stroke-opacity:1"
           d="M 85,439.09448 L 95,461.09448 L 96,482.09448 C 96,482.09448 121,463.09448 159,458.09448 C 197,453.09448 227,458.09448 250,456.09448 C 273,454.09448 318,434.09448 318,434.09448 C 318,434.09448 310,422.09448 312,414.09448 C 314,406.09448 317,393.09448 317,393.09448 C 317,393.09448 255,432.09448 237,430.09448 C 219,428.09448 173,420.09448 149,425.09448 C 125,430.09448 86,437.09448 85,439.09448 z "
           id="path1338" />
        <path
           style="fill:#ffffff;fill-opacity:1;fill-rule:evenodd;stroke:none;stroke-width:1px;stroke-linecap:butt;stroke-linejoin:miter;stroke-opacity:1"
           d="M 88.5,438.90909 L 98.199571,458.18999 L 99.169528,476.59448 C 99.169528,476.59448 123.41845,459.9428 160.27682,455.56077 C 197.13519,451.17875 226.23391,455.56077 248.54292,453.80796 C 270.85193,452.05515 314.5,434.52707 314.5,434.52707 C 314.5,434.52707 306.74034,424.01021 308.68026,416.99897 C 310.62017,409.98774 313.53004,398.59448 313.53004,398.59448 C 313.53004,398.59448 253.3927,432.77425 235.93348,431.02145 C 218.47425,429.26863 173.85622,422.2574 150.57725,426.63943 C 127.29828,431.02145 89.469957,437.15627 88.5,438.90909 z "
           id="path2213" />
      </g>
    </g>
    <text
       xml:space="preserve"
       style="font-size:12px;font-style:normal;font-weight:normal;fill:#000000;fill-opacity:1;stroke:none;stroke-width:1px;stroke-linecap:butt;stroke-linejoin:miter;stroke-opacity:1;font-family:Bitstream Vera Sans"
       x="499"
       y="523.09448"
       id="text10133"><tspan
         sodipodi:role="line"
         id="tspan10135"
         x="499"
         y="523.09448" /></text>
    <path
       style="font-size:90px;font-style:normal;font-variant:normal;font-weight:normal;font-stretch:normal;text-align:start;line-height:89.99999762%;writing-mode:lr-tb;text-anchor:start;fill:#7d7d7d;fill-opacity:1;stroke:none;stroke-width:1px;stroke-linecap:butt;stroke-linejoin:miter;stroke-opacity:1;font-family:AlArabiya"
       d="M 397.90625,642.43823 L 400.875,642.43823 L 400.875,644.09448 L 391.76562,644.09448 L 391.76562,642.43823 L 394.73438,642.43823 L 394.73438,622.43823 L 391.76562,622.43823 L 391.76562,620.76636 L 400.875,620.76636 L 400.875,622.43823 L 397.90625,622.43823 L 397.90625,642.43823 M 449.48438,644.09448 L 449.48438,642.43823 L 452.46875,642.43823 L 452.46875,622.62573 L 445.60938,622.62573 L 445.60938,626.26636 L 443.6875,626.26636 L 443.6875,620.76636 L 464.40625,620.76636 L 464.40625,626.26636 L 462.48438,626.26636 L 462.48438,622.62573 L 455.625,622.62573 L 455.625,642.43823 L 458.60938,642.43823 L 458.60938,644.09448 L 449.48438,644.09448 M 511.90625,635.64136 L 520.46875,635.64136 L 516.1875,624.54761 L 511.90625,635.64136 M 505.3125,644.09448 L 505.3125,642.43823 L 507.35938,642.43823 L 515.67188,620.76636 L 518.29688,620.76636 L 526.625,642.43823 L 528.92188,642.43823 L 528.92188,644.09448 L 520.4375,644.09448 L 520.4375,642.43823 L 523.03125,642.43823 L 521.07812,637.31323 L 511.26562,637.31323 L 509.3125,642.43823 L 511.875,642.43823 L 511.875,644.09448 L 505.3125,644.09448 M 571.14062,644.09448 L 571.14062,642.43823 L 574.10938,642.43823 L 574.10938,622.43823 L 571.14062,622.43823 L 571.14062,620.76636 L 580.25,620.76636 L 580.25,622.43823 L 577.28125,622.43823 L 577.28125,642.17261 L 587.9375,642.17261 L 587.9375,638.26636 L 589.85938,638.26636 L 589.85938,644.09448 L 571.14062,644.09448 M 639.28125,642.43823 L 642.25,642.43823 L 642.25,644.09448 L 633.14062,644.09448 L 633.14062,642.43823 L 636.10938,642.43823 L 636.10938,622.43823 L 633.14062,622.43823 L 633.14062,620.76636 L 642.25,620.76636 L 642.25,622.43823 L 639.28125,622.43823 L 639.28125,642.43823 M 691.15625,635.64136 L 699.71875,635.64136 L 695.4375,624.54761 L 691.15625,635.64136 M 684.5625,644.09448 L 684.5625,642.43823 L 686.60938,642.43823 L 694.92188,620.76636 L 697.54688,620.76636 L 705.875,642.43823 L 708.17188,642.43823 L 708.17188,644.09448 L 699.6875,644.09448 L 699.6875,642.43823 L 702.28125,642.43823 L 700.32812,637.31323 L 690.51562,637.31323 L 688.5625,642.43823 L 691.125,642.43823 L 691.125,644.09448 L 684.5625,644.09448"
       id="text1914" />
    <text
       xml:space="preserve"
       style="font-size:24px;font-style:normal;font-variant:normal;font-weight:normal;font-stretch:normal;text-align:start;line-height:125%;writing-mode:lr-tb;text-anchor:start;fill:#000000;fill-opacity:1;stroke:none;font-family:Bitstream Vera Sans"
       x="526.00018"
       y="413.09448"
       id="text2201"
       sodipodi:linespacing="125%"><tspan
         sodipodi:role="line"
         id="tspan2203"
         x="526.00018"
         y="413.09448" /></text>
  </g>
</svg>
